# xmcd
#
# Track frame offsets:
# 150
# 12259
# 24311
# 40188
# 56022
# 81939
# 108372
# 127212
# 141937
# 159251
# 173763
# 188751
# 202835
# 229183
# 248843
# 266502
# 282837
# 295051
#
# Disc length: 4145 seconds
#
#
# Revision: 0
# Processed by: cddbd v1.5.1PL2 Copyright (c) Steve Scherf et al.
# Submitted via: FreeRIP 2.942 
#
DISCID=f5102f12
DTITLE=Anselmo e Rafael - Ao Vivo
DYEAR=2006
DGENRE=Sertanejo
TTITLE0=Aô Tche Tchê
TTITLE1=Acelera
TTITLE2=Eu não te esqueci
TTITLE3=Argentina
TTITLE4=Ajoelha e chora - Trem danaddo - Pra la de Bagda - Para tudo que eu cheguei
TTITLE5=Fascina - Saudade - Desejo de amar
TTITLE6=Faz de conta - Ex-amor
TTITLE7=Vida minha
TTITLE8=Me dá um beijo
TTITLE9=Galera arrepiar - Rosto molhado - Solta o boi
TTITLE10=Chico Mineiro
TTITLE11=Estrada da vida
TTITLE12=Fio de Cabelo - Devolva a passagem - Boate Azul - Mercedita
TTITLE13=A saudade mandou avisar - Coração
TTITLE14=Olha amor - Ta faltando amor - Só liguei pra dizer que te amo
TTITLE15=Pagodão de viola
TTITLE16=Aguenta coração
TTITLE17=Garotos (Bônus Track)
EXTD=
EXTT0=
EXTT1=
EXTT2=
EXTT3=
EXTT4=
EXTT5=
EXTT6=
EXTT7=
EXTT8=
EXTT9=
EXTT10=
EXTT11=
EXTT12=
EXTT13=
EXTT14=
EXTT15=
EXTT16=
EXTT17=
PLAYORDER=
